<svg xmlns="http://www.w3.org/2000/svg" viewBox="0 0 1239.95 150.9">
    <defs>
        <style>.cls-1{fill:#fff;}</style>
        <style>
            svg{
                background: url(#MyGradient);
            }

            .path{
                fill : transparent;
            }

            .path{
                stroke-dasharray: 3000;
                stroke-dashoffset: 3000;
                stroke-width: 5;
                animation: dash 4s linear;
                animation-fill-mode: forwards;
                stroke: #fff;
            }

            @keyframes dash {
                to {
                    stroke-dashoffset: 0;
                    fill: url(#MyGradient);
                }
            }

            .fill_letter_none{
                fill: transparent;
            }


        </style>
        <defs>
            <linearGradient id="MyGradient" x1="0" x2="0" y1="0" y2="1">
                <stop offset="30%" stop-color="#fff" />
                <stop offset="70%" stop-color="#fff" />
            </linearGradient>
        </defs>
        /*<defs>
            <linearGradient id="MyGradient2">
                <stop offset="40%" stop-color="#921EB8" />
                <stop offset="60%" stop-color="#8323DC" />
            </linearGradient>
        </defs>*/

    </defs>
    <title>Fichier 3</title>
    <g id="Calque_2" data-name="Calque 2">
        <g id="Calque_1-2" data-name="Calque 1">
            <path class="path path1" d="M379,78.08c7.72,8.52,8.39,14.18,2.93,23.82-5.58,9.85-11.56,19.49-16.9,29.47-7.31,13.66-18.6,19.57-33.86,19.54q-93.73-.2-187.46-.05H0V126H6c50.66,0,101.31-.07,152,.12,4.49,0,6.73-1.48,8.93-5.23,22.79-39,45.81-77.77,68.63-116.71C237.33,1,239.34,0,243,0q82.23.18,164.47.12a35.51,35.51,0,0,1,8.42.82c10.93,2.7,16.6,13.3,11.36,23.24-7,13.38-14.86,26.42-23.18,39.06C398.41,71.74,389.69,76.5,379,78.08ZM252.33,125.92c16.09,0,31.06.26,46-.19,3.5-.11,8.22-1.69,10.14-4.26a157.77,157.77,0,0,0,14.83-24c2.77-5.59-.38-9.34-6.69-9.39q-19.2-.14-38.41,0c-1.44,0-3.56.62-4.2,1.67C266.82,101.44,259.85,113.28,252.33,125.92Zm37.57-63.18c16.57,0,32.3.16,48-.16,2.56-.05,6.06-1.5,7.43-3.47,5.56-8,11.09-16.13,15.38-24.84,2.78-5.65-.4-9.17-6.87-9.21-12.8-.09-25.6-.1-38.4.07a6,6,0,0,0-4.39,2.19C304,38.78,297.25,50.38,289.91,62.74Z"/>
            <path  class="path path2" d="M489.39,150.85q-39,0-78,0a36.14,36.14,0,0,1-7.45-.49c-10-2.13-14.3-10.14-10.71-19.63a41.45,41.45,0,0,1,3.18-6.22c19.41-33,39-66,58.24-99.06C463.43,10.35,476.52,2.56,493.54.9c5.63-.55,11.31-.77,17-.78Q576.75,0,643,.16a35.56,35.56,0,0,1,11.27,1.66c11.72,4,15.28,14,9,24.63q-29,49.34-58.09,98.57a104.31,104.31,0,0,1-9.93,13.74,32.25,32.25,0,0,1-20.9,11.66,69,69,0,0,1-9,.41Q527.38,150.88,489.39,150.85Zm13.11-24.41c11.67.82,19-4.51,24.64-14.5,13.45-23.73,27.63-47.05,41.5-70.55a45.48,45.48,0,0,0,2.61-4.82c2.49-5.7.71-9.61-5.45-10.65-16.4-2.78-26.48,1.25-34,14.2-13.75,23.76-28.1,47.16-42.2,70.72a46.87,46.87,0,0,0-2.69,4.78c-2,4.39-.78,7.67,3.82,9C494.53,125.67,498.57,125.86,502.5,126.44Z"/>
            <path  class="path path4" d="M958.41,126h117.91c-5,8.34-9.3,16-14.07,23.29-.76,1.17-3.45,1.5-5.25,1.51q-56.74.12-113.48.06H855c1.15-2.15,1.94-3.74,2.83-5.26q41.47-70.67,82.9-141.36C942.38,1.37,944.07,0,947.65,0q143.73.17,287.46.1c1.47,0,2.94.13,4.85.21V25h-6.19q-105,0-210-.13c-4.89,0-7.4,1.55-9.64,5.7-5.76,10.65-12,21-18.46,32.22h117.56c-4.91,8.59-9.19,16.39-13.87,23.94-.64,1-3.25,1.18-4.95,1.18-36,.06-72,.15-108-.08-4.52,0-6.83,1.48-8.93,5.24-5.28,9.45-11,18.65-16.5,28C960.22,122.4,959.54,123.84,958.41,126Z"/>
            <path  class="path path3" d="M730.88,111.83a5.64,5.64,0,0,1,0,1.48c-4.13,10-2,13.11,8.88,12.63,7-.31,13.34-2.43,17.2-8.56,5.83-9.27,11.15-18.87,17.31-29.39h-6.17q-41,0-82,0a54.85,54.85,0,0,1-9-.45c-8.81-1.48-12.29-7-9.64-15.54a53.82,53.82,0,0,1,5-10.85c8.25-14.28,17-28.26,24.92-42.73C704.54,5.29,715.58.13,729.85.14q36.25,0,72.5,0,43,0,86,0c15.19,0,20.19,7.61,13.88,21.56a193.31,193.31,0,0,1-9.28,17.11,4.82,4.82,0,0,1-3.39,2.2c-28.81.12-57.61.09-86.88.09.36-1.49.6-2.54.88-3.58,2.14-8-1.68-12.79-9.92-12.39-5.4.27-10.54,1.86-13.58,6.36-6.77,10-13,20.37-20.08,31.61h84.71c1.83,0,3.67,0,5.5.09C864.64,64.17,871,75,863.8,87.7q-13.49,23.93-28.35,47.08c-6.85,10.63-17.48,15.95-30.1,16q-80.24.25-160.49,0c-14,0-19.41-9.73-12.38-21.87,3.25-5.61,5.58-13.05,10.52-16,4.71-2.82,12.26-1,18.56-1,21.33-.06,42.66,0,64,0Z"/>
            <path class="fill_letter_none" d="M252.33,125.92c7.52-12.64,14.48-24.48,21.67-36.19.64-1,2.76-1.65,4.2-1.67q19.2-.19,38.41,0c6.31,0,9.47,3.8,6.69,9.39a157.77,157.77,0,0,1-14.83,24c-1.92,2.57-6.64,4.15-10.14,4.26C283.39,126.18,268.43,125.92,252.33,125.92Z"/>
            <path class="fill_letter_none" d="M289.91,62.74c7.34-12.36,14.13-24,21.17-35.42a6,6,0,0,1,4.39-2.19c12.8-.17,25.6-.16,38.4-.07,6.47,0,9.65,3.56,6.87,9.21-4.29,8.7-9.82,16.84-15.38,24.84-1.37,2-4.88,3.42-7.43,3.47C322.21,62.89,306.48,62.74,289.91,62.74Z"/>
            <path class="fill_letter_none" d="M502.5,126.44c-3.93-.58-8-.76-11.75-1.84-4.6-1.31-5.79-4.6-3.82-9a46.87,46.87,0,0,1,2.69-4.78c14.09-23.56,28.45-47,42.2-70.72,7.5-13,17.59-17,34-14.2,6.16,1,7.94,5,5.45,10.65a45.48,45.48,0,0,1-2.61,4.82c-13.87,23.49-28.05,46.81-41.5,70.55C521.48,121.92,514.17,127.26,502.5,126.44Z"/>
        </g>
    </g>
</svg>